<?xml version="1.0" encoding="UTF-8"?>
<svg version="1.1" xmlns="http://www.w3.org/2000/svg" width="196" height="157">
<path d="M0 0 C64.68 0 129.36 0 196 0 C196 51.81 196 103.62 196 157 C131.32 157 66.64 157 0 157 C0 105.19 0 53.38 0 0 Z " fill="#FCFDFE" transform="translate(0,0)"/>
<path d="M0 0 C1.45643616 1.47644043 1.45643616 1.47644043 3.14477539 3.51367188 C6.80213778 7.81224288 10.67889893 11.80769164 14.68359375 15.78125 C15.38396255 16.48020386 16.08433136 17.17915771 16.80592346 17.89929199 C19.01408458 20.10191539 21.22572037 22.30101081 23.4375 24.5 C24.94749814 26.00497508 26.4572659 27.51018135 27.96679688 29.015625 C31.64187641 32.67975829 35.32007356 36.3407348 39 40 C38.67 40.598125 38.34 41.19625 38 41.8125 C36.79212012 44.05386471 36.79212012 44.05386471 37 47 C37.94978897 49.15028304 37.94978897 49.15028304 39 51 C38.34 51.99 37.68 52.98 37 54 C36.34 54 35.68 54 35 54 C35.99 55.32 36.98 56.64 38 58 C39.32 57.67 40.64 57.34 42 57 C42 53.23312136 41.76462683 52.08809695 40 49 C40.99 48.01 41.98 47.02 43 46 C46.81684226 47.55500981 49.19195732 50.03595495 52 53 C51.649375 53.5775 51.29875 54.155 50.9375 54.75 C49.85082593 57.35801776 50.06934867 58.39417629 51 61 C55.04622502 61.36980013 55.04622502 61.36980013 58 59 C59.5625 60.25 59.5625 60.25 61 62 C60.875 64.0625 60.875 64.0625 60 66 C59.01 66.66 58.02 67.32 57 68 C56.01 67.01 55.02 66.02 54 65 C50.18315774 66.55500981 47.80804268 69.03595495 45 72 C46.55500981 75.81684226 49.03595495 78.19195732 52 81 C53.32 80.34 54.64 79.68 56 79 C55.505 78.13375 55.505 78.13375 55 77.25 C54 75 54 75 54 71 C54.66 70.34 55.32 69.68 56 69 C58.09878056 69.34979676 59.9901179 69.99660303 62 70.6875 C64.58916878 71.09205762 65.80260379 70.33413341 68 69 C68.99 69.99 69.98 70.98 71 72 C70.01 73.98 70.01 73.98 69 76 C65.88742431 76 63.89234315 75.82638376 61 75 C60.01 76.98 60.01 76.98 59 79 C59.66 79.66 60.32 80.32 61 81 C60.67861144 84.36432276 59.35354137 85.98817404 56.9375 88.25 C56.11572266 89.03117187 56.11572266 89.03117187 55.27734375 89.828125 C54.85582031 90.21484375 54.43429688 90.6015625 54 91 C50.18063472 89.44396229 47.73955562 87.04395069 45 84 C45 83.34 45 82.68 45 82 C43.35 83.32 41.7 84.64 40 86 C39.401875 85.67 38.80375 85.34 38.1875 85 C35.94613529 83.79212012 35.94613529 83.79212012 33 84 C30.84971696 84.94978897 30.84971696 84.94978897 29 86 C28.01 85.01 27.02 84.02 26 83 C24.515 83.495 24.515 83.495 23 84 C22.505 85.485 22.505 85.485 22 87 C22.99 88.485 22.99 88.485 24 90 C24.86625 89.505 24.86625 89.505 25.75 89 C28 88 28 88 32 88 C32.66 89.32 33.32 90.64 34 92 C33.01 92.99 32.02 93.98 31 95 C31.495 95.86625 31.495 95.86625 32 96.75 C33 99 33 99 33 103 C31.02 103.99 31.02 103.99 29 105 C24.71 100.71 20.42 96.42 16 92 C16.99 90.02 16.99 90.02 18 88 C18.12418768 85.06493981 18.12418768 85.06493981 17.375 82.5625 C16.94271933 79.60858207 17.43782583 78.48110015 19 76 C17.02 75.01 17.02 75.01 15 74 C14.01 75.32 13.02 76.64 12 78 C12.99 78.99 13.98 79.98 15 81 C14.01 82.98 14.01 82.98 13 85 C9 85 9 85 6.640625 83.1015625 C5.85171875 82.28429687 5.0628125 81.46703125 4.25 80.625 C3.45078125 79.81289062 2.6515625 79.00078125 1.828125 78.1640625 C0 76 0 76 0 74 C-4.48717034 77.86364295 -8.87675353 81.74790208 -13 86 C-14.9375 85.1875 -14.9375 85.1875 -17 84 C-17.33 83.01 -17.66 82.02 -18 81 C-17.01 80.01 -16.02 79.02 -15 78 C-15.66 76.68 -16.32 75.36 -17 74 C-18.98 74.495 -18.98 74.495 -21 75 C-21 78.76687864 -20.76462683 79.91190305 -19 83 C-19.99 83.99 -20.98 84.98 -22 86 C-24.49361571 84.79618552 -26.68143083 83.54571278 -29 82 C-30.21297649 84.2806707 -30.21297649 84.2806707 -31 87 C-30.23396041 89.2857711 -30.23396041 89.2857711 -29 91 C-27.35 89.68 -25.7 88.36 -24 87 C-22.68 87.66 -21.36 88.32 -20 89 C-20 93 -20 93 -22.625 96.015625 C-23.74000572 97.10408297 -24.86547085 98.18190725 -26 99.25 C-26.57234375 99.80429688 -27.1446875 100.35859375 -27.734375 100.9296875 C-29.14743057 102.29564122 -30.57258758 103.64905611 -32 105 C-33.65 104.34 -35.3 103.68 -37 103 C-38.21690533 104.76529595 -38.21690533 104.76529595 -39 107 C-38.21690533 109.23470405 -38.21690533 109.23470405 -37 111 C-38.5 112.5625 -38.5 112.5625 -41 114 C-43.06389714 113.97462422 -44.9706648 113.69282846 -47 113.32421875 C-49.32039097 112.89331974 -49.32039097 112.89331974 -53 113 C-53.66 111.68 -54.32 110.36 -55 109 C-54.01 108.01 -54.01 108.01 -53 107 C-53.10841306 103.85602129 -54.28902285 102.64848572 -56.3125 100.1875 C-58.69253247 97.72981776 -58.69253247 97.72981776 -61.0625 98.1875 C-62.0215625 98.5896875 -62.0215625 98.5896875 -63 99 C-64.32 99 -65.64 99 -67 99 C-67.66 97.68 -68.32 96.36 -69 95 C-68.01 94.01 -67.02 93.02 -66 92 C-65.4225 92.350625 -64.845 92.70125 -64.25 93.0625 C-61.64198224 94.14917407 -60.60582371 93.93065133 -58 93 C-57.59305807 89.1696916 -57.59305807 89.1696916 -59.3125 87.296875 C-60.1478125 86.53117187 -60.1478125 86.53117187 -61 85.75 C-61.556875 85.22921875 -62.11375 84.7084375 -62.6875 84.171875 C-63.120625 83.78515625 -63.55375 83.3984375 -64 83 C-63.34 81.68 -62.68 80.36 -62 79 C-58 79 -58 79 -54 81 C-52.02 78.69 -50.04 76.38 -48 74 C-46.35 74.33 -44.7 74.66 -43 75 C-43 75.66 -43 76.32 -43 77 C-41.35 76.01 -39.7 75.02 -38 74 C-38.66 72.68 -39.32 71.36 -40 70 C-40.86625 70.2165625 -40.86625 70.2165625 -41.75 70.4375 C-43.83333333 70.95833333 -45.91666667 71.47916667 -48 72 C-50.31 69.36 -52.62 66.72 -55 64 C-54.01 62.68 -53.02 61.36 -52 60 C-52.33 59.4225 -52.66 58.845 -53 58.25 C-54 56 -54 56 -54 52 C-52.6875 50.296875 -52.6875 50.296875 -51 48.75 C-50.443125 48.22921875 -49.88625 47.7084375 -49.3125 47.171875 C-48.6628125 46.59179688 -48.6628125 46.59179688 -48 46 C-44.25721785 47.4488189 -44.25721785 47.4488189 -43.125 49.875 C-42.97212565 52.47386397 -43.66545464 53.8019253 -45 56 C-43.68 56.66 -42.36 57.32 -41 58 C-40.34 56.68 -39.68 55.36 -39 54 C-39.99 52.68 -40.98 51.36 -42 50 C-41.01 49.01 -40.02 48.02 -39 47 C-39.33 46.4225 -39.66 45.845 -40 45.25 C-41 43 -41 43 -41 39 C-39.53286743 37.03839111 -39.53286743 37.03839111 -37.45166016 34.96582031 C-36.67730621 34.18531311 -35.90295227 33.40480591 -35.10513306 32.60064697 C-33.83492813 31.3519986 -33.83492813 31.3519986 -32.5390625 30.078125 C-31.6781601 29.21813904 -30.81725769 28.35815308 -29.93026733 27.47210693 C-28.10731948 25.65520538 -26.27950921 23.84317145 -24.44726562 22.03564453 C-21.63293423 19.25783128 -18.83494218 16.46434049 -16.0390625 13.66796875 C-14.26917068 11.90790688 -12.49836787 10.14876053 -10.7265625 8.390625 C-9.88380768 7.55009583 -9.04105286 6.70956665 -8.17276001 5.84356689 C-7.39210175 5.07566833 -6.61144348 4.30776978 -5.80712891 3.51660156 C-5.11873932 2.83583557 -4.43034973 2.15506958 -3.72109985 1.45367432 C-2 0 -2 0 0 0 Z " fill="#1763B7" transform="translate(98,16)"/>
<path d="M0 0 C0.99 0.66 1.98 1.32 3 2 C5.47266765 1.65555119 5.47266765 1.65555119 8 1 C12 1 12 1 13.703125 2.2421875 C14.21359375 2.78101562 14.7240625 3.31984375 15.25 3.875 C16.03117187 4.67550781 16.03117187 4.67550781 16.828125 5.4921875 C18 7 18 7 18 9 C19.65 7.68 21.3 6.36 23 5 C24.32 5.66 25.64 6.32 27 7 C27 11 27 11 24.375 14.015625 C23.25999428 15.10408297 22.13452915 16.18190725 21 17.25 C20.42765625 17.80429688 19.8553125 18.35859375 19.265625 18.9296875 C17.85256943 20.29564122 16.42741242 21.64905611 15 23 C12.525 22.01 12.525 22.01 10 21 C8.78309467 22.76529595 8.78309467 22.76529595 8 25 C8.78309467 27.23470405 8.78309467 27.23470405 10 29 C8.5 30.5625 8.5 30.5625 6 32 C3.93610286 31.97462422 2.0293352 31.69282846 0 31.32421875 C-2.32039097 30.89331974 -2.32039097 30.89331974 -6 31 C-6.66 29.68 -7.32 28.36 -8 27 C-7.34 26.34 -6.68 25.68 -6 25 C-6.10841306 21.85602129 -7.28902285 20.64848572 -9.3125 18.1875 C-11.69253247 15.72981776 -11.69253247 15.72981776 -14.0625 16.1875 C-14.701875 16.455625 -15.34125 16.72375 -16 17 C-17.32 17 -18.64 17 -20 17 C-20.66 15.68 -21.32 14.36 -22 13 C-21.01 12.01 -20.02 11.02 -19 10 C-18.4225 10.350625 -17.845 10.70125 -17.25 11.0625 C-14.44828477 12.22988135 -13.79658477 12.14226702 -11 11 C-8.97774673 9.18957493 -7.11362028 7.39650242 -5.25 5.4375 C-4.74339844 4.91736328 -4.23679687 4.39722656 -3.71484375 3.86132812 C-2.46965595 2.58089916 -1.23388498 1.29132446 0 0 Z " fill="#4682C5" transform="translate(51,98)"/>
<path d="M0 0 C2.99220268 1.36370299 5.29026529 2.94908083 7.75 5.125 C8.67039063 5.93324219 8.67039063 5.93324219 9.609375 6.7578125 C10.06828125 7.16773437 10.5271875 7.57765625 11 8 C11.99 7.01 12.98 6.02 14 5 C15.32 5.66 16.64 6.32 18 7 C18 11 18 11 16.6875 12.703125 C16.130625 13.21359375 15.57375 13.7240625 15 14.25 C14.443125 14.77078125 13.88625 15.2915625 13.3125 15.828125 C12.6628125 16.40820312 12.6628125 16.40820312 12 17 C12.66 18.32 13.32 19.64 14 21 C14.86625 20.7525 14.86625 20.7525 15.75 20.5 C18 20 18 20 22 20 C22.66 21.32 23.32 22.64 24 24 C23.01 24.99 22.02 25.98 21 27 C20.13375 26.4740625 20.13375 26.4740625 19.25 25.9375 C16.56641628 24.81934012 15.69390896 25.07396879 13 26 C10.68920087 26.72212473 9.42767365 27.11036739 7.0625 26.5 C4.91640506 25.81261649 4.91640506 25.81261649 2.4375 26.625 C1.633125 26.74875 0.82875 26.8725 0 27 C-1.8125 25.5625 -1.8125 25.5625 -3 24 C-2.649375 23.4225 -2.29875 22.845 -1.9375 22.25 C-0.8275551 19.58613224 -1.05410055 18.66571663 -2 16 C-2.33 15.01 -2.66 14.02 -3 13 C-2.01 12.01 -1.02 11.02 0 10 C-0.33 9.4225 -0.66 8.845 -1 8.25 C-2 6 -2 6 -2 2 C-1.34 1.34 -0.68 0.68 0 0 Z " fill="#1C66B8" transform="translate(136,103)"/>
<path d="M0 0 C3.88397689 1.55002747 6.02979619 4.00476621 8.75 7.125 C9.94882812 8.49011719 9.94882812 8.49011719 11.171875 9.8828125 C12.07679687 10.93082031 12.07679687 10.93082031 13 12 C15.07126259 11.49839987 17.0577523 10.97899916 19.0625 10.25 C19.701875 10.1675 20.34125 10.085 21 10 C22.75 11.4375 22.75 11.4375 24 13 C23.25 14.9375 23.25 14.9375 22 17 C19.875 17.75 19.875 17.75 18 18 C17.67 17.34 17.34 16.68 17 16 C14.29068581 16.15481795 12.53415961 16.48172081 10.5546875 18.40234375 C9.32320358 19.89771708 8.1570163 21.4462924 7 23 C3.17035345 21.43977363 0.67809511 19.12444429 -2 16 C-2 12 -2 12 -1.375 10 C-0.88604778 7.39225482 -1.65226529 6.21979834 -3 4 C-2.01 2.68 -1.02 1.36 0 0 Z " fill="#EFF4FA" transform="translate(37,75)"/>
<path d="M0 0 C0.86625 0.495 0.86625 0.495 1.75 1 C4.19883862 2.27075898 4.19883862 2.27075898 8 2 C8.99 1.34 9.98 0.68 11 0 C11.99 0.99 12.98 1.98 14 3 C14.598125 2.690625 15.19625 2.38125 15.8125 2.0625 C18 1 18 1 21 0 C21.70576172 0.86625 21.70576172 0.86625 22.42578125 1.75 C23.04839844 2.4925 23.67101562 3.235 24.3125 4 C24.92738281 4.7425 25.54226562 5.485 26.17578125 6.25 C27.93950063 8.34613723 27.93950063 8.34613723 31 8 C30 11 30 11 28.125 12.1875 C26 13 26 13 23 13 C21.17578125 11.46875 21.17578125 11.46875 19.3125 9.5 C18.68988281 8.8503125 18.06726563 8.200625 17.42578125 7.53125 C16.95527344 7.0259375 16.48476562 6.520625 16 6 C14.02 6.99 14.02 6.99 12 8 C12.33 8.5775 12.66 9.155 13 9.75 C14 12 14 12 14 16 C13 18.25 13 18.25 12 20 C11.34 20 10.68 20 10 20 C8.61767557 18.37373596 7.28062485 16.7074998 6 15 C6.33 14.4225 6.66 13.845 7 13.25 C8.27075898 10.80116138 8.27075898 10.80116138 8 7 C4.23312136 7 3.08809695 7.23537317 0 9 C-0.99 7.35 -1.98 5.7 -3 4 C-2.01 2.68 -1.02 1.36 0 0 Z " fill="#ECF2F9" transform="translate(122,98)"/>
<path d="M0 0 C1.32 0.66 2.64 1.32 4 2 C4 6 4 6 1.375 9.015625 C0.25999428 10.10408297 -0.86547085 11.18190725 -2 12.25 C-2.57234375 12.80429688 -3.1446875 13.35859375 -3.734375 13.9296875 C-5.14743057 15.29564122 -6.57258758 16.64905611 -8 18 C-8.99 17.34 -9.98 16.68 -11 16 C-11.1875 13.625 -11.1875 13.625 -11 11 C-11 9.68 -11 8.36 -11 7 C-10.6875 4.8125 -10.6875 4.8125 -10 3 C-7 2 -7 2 -5 2.625 C-4.34 2.74875 -3.68 2.8725 -3 3 C-1.22809091 1.64555699 -1.22809091 1.64555699 0 0 Z " fill="#1B65B8" transform="translate(74,103)"/>
<path d="M0 0 C0.33 0.99 0.66 1.98 1 3 C-1.36620011 5.61527381 -3.942048 7.26440562 -7 9 C-6.67 9.5775 -6.34 10.155 -6 10.75 C-5 13 -5 13 -5 17 C-6.98 17.99 -6.98 17.99 -9 19 C-11.64 16.36 -14.28 13.72 -17 11 C-14.77502475 6.55004949 -12.55366005 4.39915309 -9 1 C-8.1028125 1.495 -8.1028125 1.495 -7.1875 2 C-4.94613529 3.20787988 -4.94613529 3.20787988 -2 3 C-1.34 2.01 -0.68 1.02 0 0 Z " fill="#EEF3F9" transform="translate(159,79)"/>
<path d="M0 0 C2.47598865 1.19805902 2.96367818 2.42179364 3.9375 4.9375 C3.4425 5.55625 2.9475 6.175 2.4375 6.8125 C0.74527227 8.77630904 0.74527227 8.77630904 0.9375 10.9375 C-2.82429491 14.2813177 -6.32046574 16.35682191 -11.0625 17.9375 C-12.0525 16.2875 -13.0425 14.6375 -14.0625 12.9375 C-13.0725 11.6175 -12.0825 10.2975 -11.0625 8.9375 C-10.19625 9.4325 -10.19625 9.4325 -9.3125 9.9375 C-6.86366138 11.20825898 -6.86366138 11.20825898 -3.0625 10.9375 C-3.0625 7.17062136 -3.29787317 6.02559695 -5.0625 2.9375 C-2.64829882 -0.08025148 -2.64829882 -0.08025148 0 0 Z " fill="#DAE6F3" transform="translate(80.0625,89.0625)"/>
<path d="M0 0 C0.556875 0.391875 1.11375 0.78375 1.6875 1.1875 C1.6875 5.08399226 1.67278754 6.90745971 -0.3125 10.1875 C-3.9375 11.5 -3.9375 11.5 -7.3125 12.1875 C-8.3025 11.1975 -9.2925 10.2075 -10.3125 9.1875 C-10.003125 8.589375 -9.69375 7.99125 -9.375 7.375 C-8.21040296 5.09793228 -8.21040296 5.09793228 -7.3125 2.1875 C-3.12202381 -1.09692728 -3.12202381 -1.09692728 0 0 Z " fill="#D7E4F2" transform="translate(143.3125,117.8125)"/>
<path d="M0 0 C2.06035444 0.42628023 4.01053784 1.00362238 6 1.6875 C8.58916878 2.09205762 9.80260379 1.33413341 12 0 C12.99 0.99 13.98 1.98 15 3 C14.34 4.32 13.68 5.64 13 7 C9 7 9 7 7 6.25 C6.34 6.1675 5.68 6.085 5 6 C2.72855926 7.85432087 2.72855926 7.85432087 1 10 C-0.32 8.35 -1.64 6.7 -3 5 C-1.125 1.125 -1.125 1.125 0 0 Z " fill="#3879C1" transform="translate(154,85)"/>
<path d="M0 0 C0.5775 0.515625 1.155 1.03125 1.75 1.5625 C3.84464147 3.25033834 3.84464147 3.25033834 6 2.6875 C6.66 2.460625 7.32 2.23375 8 2 C9.32 2 10.64 2 12 2 C12.66 3.32 13.32 4.64 14 6 C13.01 6.99 12.02 7.98 11 9 C10.4225 8.649375 9.845 8.29875 9.25 7.9375 C6.56641628 6.81934012 5.69390896 7.07396879 3 8 C0.875 8.6875 0.875 8.6875 -1 9 C-1.66 8.34 -2.32 7.68 -3 7 C-2.67028521 3.70285207 -2.3773161 2.3773161 0 0 Z " fill="#3376C0" transform="translate(146,121)"/>
<path d="M0 0 C1.65 1.65 3.3 3.3 5 5 C2.36 7.64 -0.28 10.28 -3 13 C-4.32 12.34 -5.64 11.68 -7 11 C-7 7 -7 7 -5.46875 5.078125 C-4.8190625 4.47484375 -4.169375 3.8715625 -3.5 3.25 C-2.8503125 2.63640625 -2.200625 2.0228125 -1.53125 1.390625 C-1.0259375 0.93171875 -0.520625 0.4728125 0 0 Z " fill="#F4F8FB" transform="translate(51,98)"/>
<path d="M0 0 C1.9375 0.1875 1.9375 0.1875 4 1 C5.25 3.0625 5.25 3.0625 6 5 C3.25 8.875 3.25 8.875 1 10 C-0.32 8.35 -1.64 6.7 -3 5 C-1.125 1.125 -1.125 1.125 0 0 Z " fill="#DAE6F3" transform="translate(131,108)"/>
<path d="M0 0 C1.32 0.66 2.64 1.32 4 2 C4 5.76687864 3.76462683 6.91190305 2 10 C1.34 10 0.68 10 0 10 C-1.38938077 8.03852126 -2.7260411 6.03833424 -4 4 C-2.68 2.68 -1.36 1.36 0 0 Z " fill="#DFE9F5" transform="translate(113,89)"/>
<path d="M0 0 C2.41527102 1.20763551 2.9183747 2.46621798 3.875 4.9375 C2.5625 6.4375 2.5625 6.4375 0.875 7.9375 C-0.115 7.9375 -1.105 7.9375 -2.125 7.9375 C-2.455 7.2775 -2.785 6.6175 -3.125 5.9375 C-4.115 5.6075 -5.105 5.2775 -6.125 4.9375 C-6.125 4.2775 -6.125 3.6175 -6.125 2.9375 C-4.05241268 0.93893366 -2.93377168 -0.0862874 0 0 Z " fill="#DFE9F5" transform="translate(57.125,85.0625)"/>
<path d="M0 0 C1.65 1.32 3.3 2.64 5 4 C4.02617818 6.51570636 3.53848865 7.73944098 1.0625 8.9375 C-1 9 -1 9 -2.75 7.6875 C-4 6 -4 6 -4 4 C-3.34 4 -2.68 4 -2 4 C-1.34 2.68 -0.68 1.36 0 0 Z " fill="#DFE9F5" transform="translate(137,66)"/>
<path d="M0 0 C2 0.125 2 0.125 4 1 C5.25 3.0625 5.25 3.0625 6 5 C4.68 5.99 3.36 6.98 2 8 C0.68 7.34 -0.64 6.68 -2 6 C-2 2 -2 2 0 0 Z " fill="#3174BF" transform="translate(55,122)"/>
<path d="M0 0 C2 0.125 2 0.125 4 1 C5.25 3.0625 5.25 3.0625 6 5 C4.75 6.5625 4.75 6.5625 3 8 C0.8125 7.6875 0.8125 7.6875 -1 7 C-1.625 4.625 -1.625 4.625 -2 2 C-1.34 1.34 -0.68 0.68 0 0 Z " fill="#3074BF" transform="translate(159,108)"/>
<path d="M0 0 C1.9375 0.75 1.9375 0.75 4 2 C4.875 4 4.875 4 5 6 C4.34 6.66 3.68 7.32 3 8 C0.375 7.625 0.375 7.625 -2 7 C-2.6875 5.1875 -2.6875 5.1875 -3 3 C-1.5625 1.25 -1.5625 1.25 0 0 Z " fill="#E0EAF5" transform="translate(60,98)"/>
<path d="M0 0 C2.47598865 1.19805902 2.96367818 2.42179364 3.9375 4.9375 C2.6875 6.5 2.6875 6.5 0.9375 7.9375 C-1.125 7.875 -1.125 7.875 -3.0625 6.9375 C-4.3125 4.875 -4.3125 4.875 -5.0625 2.9375 C-2.64829882 -0.08025148 -2.64829882 -0.08025148 0 0 Z " fill="#E1EBF5" transform="translate(71.0625,80.0625)"/>
<path d="M0 0 C2.51570636 0.97382182 3.73944098 1.46151135 4.9375 3.9375 C5 6 5 6 3.5625 7.75 C2.7890625 8.36875 2.7890625 8.36875 2 9 C0.68 8.34 -0.64 7.68 -2 7 C-2 3 -2 3 0 0 Z " fill="#3073BF" transform="translate(37,75)"/>
<path d="M0 0 C2.47598865 1.19805902 2.96367818 2.42179364 3.9375 4.9375 C2.9475 5.9275 1.9575 6.9175 0.9375 7.9375 C-1.5 7.125 -1.5 7.125 -4.0625 5.9375 C-4.3925 4.9475 -4.7225 3.9575 -5.0625 2.9375 C-2.64829882 -0.08025148 -2.64829882 -0.08025148 0 0 Z " fill="#2D72BE" transform="translate(38.0625,122.0625)"/>
<path d="M0 0 C1.32 0.66 2.64 1.32 4 2 C4 3.32 4 4.64 4 6 C2.02 6.99 2.02 6.99 0 8 C-2 6.625 -2 6.625 -4 5 C-4 4.34 -4 3.68 -4 3 C-2 1.375 -2 1.375 0 0 Z " fill="#2A6FBD" transform="translate(28,85)"/>
<path d="M0 0 C2.125 0.375 2.125 0.375 4 1 C4.6875 2.8125 4.6875 2.8125 5 5 C3.5625 6.75 3.5625 6.75 2 8 C0.68 7.34 -0.64 6.68 -2 6 C-2 2 -2 2 0 0 Z " fill="#E8F0F8" transform="translate(122,80)"/>
<path d="M0 0 C2.46278801 1.231394 3.42497687 2.78064923 5 5 C4.34 6.32 3.68 7.64 3 9 C1.68 9 0.36 9 -1 9 C-2.1875 7.3125 -2.1875 7.3125 -3 5 C-1.625 2.25 -1.625 2.25 0 0 Z " fill="#ECF2F9" transform="translate(55,65)"/>
<path d="M0 0 C2.51570636 0.97382182 3.73944098 1.46151135 4.9375 3.9375 C5 6 5 6 3.6875 7.75 C2 9 2 9 0 9 C-1.625 6.5 -1.625 6.5 -3 4 C-2.01 2.68 -1.02 1.36 0 0 Z " fill="#EAF1F8" transform="translate(69,98)"/>
<path d="M0 0 C1.32 0.99 2.64 1.98 4 3 C3.6875 4.875 3.6875 4.875 3 7 C2.01 7.66 1.02 8.32 0 9 C-1.65 7.35 -3.3 5.7 -5 4 C-3.35 2.68 -1.7 1.36 0 0 Z " fill="#236ABB" transform="translate(155,75)"/>
<path d="M0 0 C1.32 0.66 2.64 1.32 4 2 C4 3.32 4 4.64 4 6 C2.02 6.99 2.02 6.99 0 8 C-0.99 7.01 -1.98 6.02 -3 5 C-1.125 1.125 -1.125 1.125 0 0 Z " fill="#226ABA" transform="translate(155,122)"/>
<path d="M0 0 C1.32 0.66 2.64 1.32 4 2 C4 3.32 4 4.64 4 6 C2.02 6.99 2.02 6.99 0 8 C-0.99 7.01 -1.98 6.02 -3 5 C-1.125 1.125 -1.125 1.125 0 0 Z " fill="#226ABA" transform="translate(136,122)"/>
<path d="M0 0 C1.32 0.66 2.64 1.32 4 2 C4 3.32 4 4.64 4 6 C2.02 6.99 2.02 6.99 0 8 C-0.99 7.01 -1.98 6.02 -3 5 C-1.125 1.125 -1.125 1.125 0 0 Z " fill="#2068BA" transform="translate(46,122)"/>
<path d="M0 0 C1.32 0.66 2.64 1.32 4 2 C4 3.32 4 4.64 4 6 C2.02 6.99 2.02 6.99 0 8 C-0.99 7.01 -1.98 6.02 -3 5 C-1.125 1.125 -1.125 1.125 0 0 Z " fill="#F2F6FB" transform="translate(60,108)"/>
<path d="M0 0 C1.32 0.66 2.64 1.32 4 2 C4 3.32 4 4.64 4 6 C2.02 6.99 2.02 6.99 0 8 C-0.99 7.01 -1.98 6.02 -3 5 C-1.125 1.125 -1.125 1.125 0 0 Z " fill="#216ABA" transform="translate(164,85)"/>
<path d="M0 0 C1.32 0.66 2.64 1.32 4 2 C4 3.32 4 4.64 4 6 C2.02 6.99 2.02 6.99 0 8 C-0.99 7.01 -1.98 6.02 -3 5 C-1.125 1.125 -1.125 1.125 0 0 Z " fill="#F0F5FA" transform="translate(136,85)"/>
<path d="M0 0 C1.32 0.66 2.64 1.32 4 2 C4 3.32 4 4.64 4 6 C2.02 6.99 2.02 6.99 0 8 C-0.99 7.01 -1.98 6.02 -3 5 C-1.125 1.125 -1.125 1.125 0 0 Z " fill="#1F68B9" transform="translate(37,85)"/>
<path d="M0 0 C0.66 0 1.32 0 2 0 C2.66 1.32 3.32 2.64 4 4 C3.34 4.66 2.68 5.32 2 6 C-0.125 5.625 -0.125 5.625 -2 5 C-2 2 -2 2 0 0 Z " fill="#3B7BC2" transform="translate(171,98)"/>
<path d="M0 0 C0.66 0 1.32 0 2 0 C2.66 1.32 3.32 2.64 4 4 C3.34 4.66 2.68 5.32 2 6 C-0.125 5.625 -0.125 5.625 -2 5 C-1.125 1.125 -1.125 1.125 0 0 Z " fill="#3879C1" transform="translate(21,98)"/>
<path d="M0 0 C1.98 0.495 1.98 0.495 4 1 C4 1.99 4 2.98 4 4 C3.01 4.66 2.02 5.32 1 6 C0.34 5.34 -0.32 4.68 -1 4 C-0.625 1.875 -0.625 1.875 0 0 Z " fill="#3476C0" transform="translate(159,134)"/>
<path d="M0 0 C2.0625 0.4375 2.0625 0.4375 4 1 C4 1.99 4 2.98 4 4 C2.68 4.33 1.36 4.66 0 5 C-0.5625 3.0625 -0.5625 3.0625 -1 1 C-0.67 0.67 -0.34 0.34 0 0 Z " fill="#3275BF" transform="translate(31,134)"/>
<path d="M0 0 C2.0625 0.4375 2.0625 0.4375 4 1 C3.67 2.32 3.34 3.64 3 5 C1.68 4.67 0.36 4.34 -1 4 C-1 1 -1 1 0 0 Z " fill="#3275BF" transform="translate(167,119)"/>
<path d="M0 0 C2.0625 0.4375 2.0625 0.4375 4 1 C3.67 2.32 3.34 3.64 3 5 C1.68 4.67 0.36 4.34 -1 4 C-1 1 -1 1 0 0 Z " fill="#3275BF" transform="translate(24,119)"/>
<path d="M0 0 C0.99 0.33 1.98 0.66 3 1 C3 1.99 3 2.98 3 4 C0.5 6.1875 0.5 6.1875 -2 8 C-2 4.23312136 -1.76462683 3.08809695 0 0 Z " fill="#5089C9" transform="translate(117,101)"/>
<path d="M0 0 C0.99 0.33 1.98 0.66 3 1 C2.2884375 1.61875 2.2884375 1.61875 1.5625 2.25 C-0.16266518 4.182185 -0.56584875 5.48192275 -1 8 C-1.66 6.68 -2.32 5.36 -3 4 C-2.01 2.68 -1.02 1.36 0 0 Z " fill="#D2E1F1" transform="translate(122,98)"/>
</svg>
